<?xml version="1.0" encoding="utf-8"?>
<svg t="1701092152480" class="icon" viewBox="0 0 1024 1024" version="1.1" p-id="15080" width="200" height="200" xmlns="http://www.w3.org/2000/svg">
  <path d="M 200 0 L 824 0 C 934.457 0 1024 89.543 1024 200 L 1024 824 C 1024 934.457 934.457 1024 824 1024 L 200 1024 C 89.543 1024 0 934.457 0 824 L 0 200 C 0 89.543 89.543 0 200 0 Z M 812.25 247.216 L 802.883 242.905 C 611.572 156.568 391.773 159.78 203.067 251.674 L 203.067 595.886 L 203.994 598.14 C 259.249 732.678 372.711 834.767 512.316 875.556 L 537.729 868.808 C 673.071 832.861 780.341 729.716 821.565 595.886 L 821.565 251.674 Z M 766.992 587.372 C 729.592 699.704 638.15 785.662 523.722 816.052 L 513.497 818.782 C 398.772 780.869 305.683 695.783 257.639 584.916 L 257.639 286.763 C 417.263 219.008 597.308 217.654 757.932 282.998 L 766.992 286.783 Z M 669.674 376.389 C 564.915 428.406 486.097 498.546 450.335 534.066 L 391.491 484.882 L 353.968 509.935 L 455.172 620.254 C 490.252 563.019 567.225 466.792 676.437 396.357 Z" style="paint-order: fill;"/>
</svg>