<?xml version="1.0" encoding="utf-8"?>
<svg t="1701092152480" class="icon" viewBox="0 0 1024 1024" version="1.1" p-id="15080" width="200" height="200" xmlns="http://www.w3.org/2000/svg">
  <rect style="paint-order: fill; fill: rgb(21, 38, 120);" x="98" y="98" width="827" height="827" rx="200" ry="200"/>
  <path d="M 752.941 524.478 L 752.955 579.248 C 719.662 687.331 633.029 770.633 523.724 799.664 L 503.2 805.114 L 503.2 524.478 L 752.941 524.478 Z M 503.2 243.68 L 503.2 524.478 L 253.445 524.478 L 253.445 301.256 C 331.25 263.361 416.658 243.671 503.2 243.68 Z" p-id="15081" style="fill: rgb(28, 171, 236); visibility: hidden;"/>
  <path d="M 761.51 301.256 L 761.51 579.248 C 728.217 687.331 641.584 770.633 532.279 799.664 L 511.755 805.114 C 399.008 772.172 307.374 689.723 262.749 581.068 L 262 579.248 L 262 301.256 C 414.403 227.041 591.916 224.447 746.422 294.174 L 753.987 297.656 L 761.51 301.256 Z M 717.436 329.611 L 710.119 326.554 C 580.396 273.781 434.989 274.875 306.074 329.595 L 306.074 570.388 C 344.875 659.926 420.055 728.643 512.709 759.262 L 520.967 757.058 C 613.381 732.514 687.231 663.093 717.436 572.372 L 717.436 329.58 Z" p-id="15082" style="fill: rgb(255, 255, 255);"/>
  <path d="M 638.84 401.978 C 554.235 443.988 490.58 500.634 461.698 529.321 L 414.175 489.599 L 383.871 509.832 L 465.605 598.928 C 493.936 552.704 556.101 474.989 644.302 418.105 L 638.84 401.978 Z" p-id="11504" style="fill: rgb(255, 255, 255);"/>
</svg>